<svg width="138" height="30" viewBox="0 0 138 30" fill="none" xmlns="http://www.w3.org/2000/svg">
<path d="M44.4112 7.60222V9.0801C45.4464 7.91891 46.8958 7.28553 48.6558 7.28553C49.8981 7.28553 51.0369 7.60222 51.9687 8.2356C53.0039 8.86898 53.7286 9.71348 54.3498 10.7691C54.971 11.8247 55.178 13.0915 55.178 14.4638C55.178 15.9417 54.8674 17.2084 54.2463 18.2641C53.6251 19.3197 52.9004 20.1642 51.8651 20.692C50.8299 21.2198 49.7946 21.5365 48.5523 21.5365C46.6888 21.5365 45.3429 21.0087 44.3076 19.8475V27.3424H40.7877V7.60222H44.4112ZM48.0346 18.1585C49.1734 18.1585 50.0016 17.8418 50.7263 17.1029C51.451 16.3639 51.7616 15.4139 51.7616 14.3582C51.7616 13.3026 51.451 12.3525 50.7263 11.6136C50.0016 10.8747 49.1734 10.558 48.0346 10.558C46.8958 10.558 46.0676 10.8747 45.3429 11.6136C44.6182 12.3525 44.3076 13.197 44.3076 14.3582C44.3076 15.5194 44.6182 16.3639 45.3429 17.1029C45.9641 17.8418 46.8958 18.1585 48.0346 18.1585ZM62.9426 21.5365C61.9073 21.5365 60.872 21.2198 59.8368 20.692C58.8015 20.0586 58.0768 19.3197 57.4556 18.1585C56.8345 17.1029 56.5239 15.8361 56.5239 14.3582C56.5239 13.0915 56.8345 11.8247 57.4556 10.7691C58.0768 9.71348 58.905 8.76341 59.8368 8.13004C60.872 7.49666 62.0108 7.17997 63.1496 7.17997C63.9779 7.17997 64.8061 7.28553 65.5308 7.60222C66.2555 7.91891 66.7731 8.2356 67.1872 8.76341V7.60222H70.7071V21.1143H67.1872V19.8475C66.6696 20.3753 66.0484 20.7976 65.4272 21.0087C64.7025 21.3254 63.8743 21.5365 62.9426 21.5365ZM63.6673 18.1585C64.8061 18.1585 65.6343 17.8418 66.2555 17.1029C66.8766 16.3639 67.2907 15.4139 67.2907 14.3582C67.2907 13.3026 66.9801 12.3525 66.2555 11.6136C65.6343 10.8747 64.7025 10.558 63.6673 10.558C62.632 10.558 61.7003 10.8747 61.0791 11.6136C60.4579 12.3525 60.0438 13.3026 60.0438 14.3582C60.0438 15.4139 60.3544 16.3639 61.0791 17.1029C61.8038 17.8418 62.5285 18.1585 63.6673 18.1585ZM76.8153 7.60222V9.29123C77.3329 8.65785 77.9541 8.13004 78.6788 7.81335C79.507 7.3911 80.3352 7.28553 81.1634 7.28553C82.6128 7.28553 83.7516 7.70779 84.5798 8.44672C85.408 9.18566 85.8222 10.3469 85.8222 11.9303V21.1143H82.3022V13.197C82.3022 12.3525 82.0952 11.6136 81.5775 11.1914C81.1634 10.7691 80.5423 10.558 79.714 10.558C78.8858 10.558 78.0576 10.8747 77.54 11.508C77.0223 12.1414 76.7117 12.9859 76.7117 14.1471V21.1143H73.1918V7.60222H76.8153ZM93.4832 21.5365C92.3444 21.5365 91.3091 21.1142 90.5844 20.3753C89.7562 19.6364 89.3421 18.4752 89.3421 16.9973V10.6635H87.168V7.60222H89.3421V5.27984L92.862 3.59084V7.49666H96.4855V10.558H92.862V16.6806C92.862 17.2084 92.9656 17.6307 93.2761 17.9474C93.5867 18.2641 93.8973 18.3696 94.3114 18.3696C94.9326 18.3696 95.6573 18.0529 96.382 17.5251H96.7961L96.589 20.692C95.9679 21.0087 95.4502 21.1143 95.0361 21.2198C94.622 21.4309 94.1044 21.5365 93.4832 21.5365ZM98.556 1.37402H102.076V9.29123C102.594 8.65785 103.215 8.13004 103.939 7.81335C104.768 7.3911 105.596 7.28553 106.528 7.28553C107.977 7.28553 109.219 7.70779 110.048 8.44672C110.876 9.18566 111.393 10.3469 111.393 11.9303V21.1143H107.874V13.197C107.874 12.3525 107.666 11.6136 107.149 11.1914C106.735 10.7691 106.114 10.558 105.285 10.558C104.354 10.558 103.629 10.8747 103.008 11.508C102.387 12.1414 102.076 12.9859 102.076 14.1471V21.1143H98.556V1.37402ZM120.504 21.5365C119.054 21.5365 117.812 21.2198 116.777 20.5864C115.638 19.9531 114.81 19.1086 114.189 17.9474C113.568 16.7862 113.257 15.625 113.257 14.2527C113.257 12.9859 113.568 11.7192 114.189 10.6635C114.81 9.60791 115.638 8.76341 116.673 8.13004C117.709 7.49666 118.951 7.17997 120.297 7.17997C121.643 7.17997 122.885 7.49666 123.817 8.13004C124.852 8.76341 125.577 9.60791 126.094 10.6635C126.612 11.7192 126.923 12.8804 126.923 14.1471V15.2027H116.673C116.88 16.2584 117.398 16.9973 118.019 17.5251C118.744 18.0529 119.676 18.3696 120.814 18.3696C122.574 18.3696 124.127 17.7362 125.473 16.5751H125.887L125.784 19.9531C124.956 20.4809 124.127 20.7976 123.196 21.0087C122.16 21.4309 121.332 21.5365 120.504 21.5365ZM123.196 12.7748C123.092 11.9303 122.781 11.2969 122.16 10.8747C121.539 10.3469 120.918 10.1357 119.986 10.1357C119.158 10.1357 118.433 10.3469 117.812 10.7691C117.191 11.1914 116.777 11.8247 116.57 12.6692H123.196V12.7748ZM128.683 7.60222H132.202V8.97454C132.617 8.44672 133.134 8.02447 133.755 7.70779C134.377 7.3911 134.998 7.28553 135.619 7.28553C136.137 7.28553 136.551 7.3911 136.861 7.49666C137.172 7.60222 137.482 7.70779 137.793 7.91891L138 11.7192H137.482C137.172 11.4025 136.861 11.0858 136.447 10.8747C136.033 10.6635 135.619 10.558 135.205 10.558C134.377 10.558 133.652 10.8747 133.031 11.4025C132.513 11.9303 132.202 12.7748 132.202 13.8304V21.2198H128.683V7.60222Z" fill="#1E1942"/>
<path d="M0 18.792C0 15.7307 1.44938 13.4083 4.03757 13.4083C9.421 13.4083 18.5314 24.4924 14.4938 28.5038C10.6633 32.5151 0 28.1871 0 18.792Z" fill="#1E1942"/>
<path d="M10.249 9.39508C7.76438 12.3508 4.34797 11.5063 2.588 9.71177C-1.03546 5.91151 2.588 0 7.55733 0C12.3196 0 14.5972 4.22251 10.249 9.39508Z" fill="#1E1942"/>
<path d="M25.3616 2.8496C21.0135 2.74404 13.3524 5.91092 13.3524 11.7169C13.3524 20.7953 33.2297 34.4129 33.1262 13.5114C33.1262 5.6998 29.5027 2.95517 25.3616 2.8496Z" fill="#1E1942"/>
</svg>
